<?xml version="1.0" standalone="no"?>
<!DOCTYPE svg PUBLIC "-//W3C//DTD SVG 20010904//EN"
 "http://www.w3.org/TR/2001/REC-SVG-20010904/DTD/svg10.dtd">
<svg version="1.0" xmlns="http://www.w3.org/2000/svg"
 width="200.000000pt" height="60.000000pt" viewBox="0 0 200.000000 60.000000"
 preserveAspectRatio="xMidYMid meet">

<g transform="translate(0.000000,60.000000) scale(0.100000,-0.100000)"
fill="#000000" stroke="none">
<path d="M120 485 c0 -90 -2 -98 -26 -121 -19 -20 -24 -32 -19 -53 9 -43 64
-101 119 -127 122 -57 265 -13 320 99 l26 50 -25 23 c-23 22 -25 29 -25 124 0
57 -4 100 -10 100 -17 0 -76 -58 -95 -94 -19 -35 -21 -36 -82 -36 -57 0 -64 2
-80 28 -21 34 -84 102 -95 102 -4 0 -8 -43 -8 -95z m120 -135 c27 -27 25 -40
-5 -40 -25 0 -68 37 -59 52 9 15 43 9 64 -12z m190 6 c0 -18 -38 -46 -62 -46
-23 0 -23 18 -1 42 19 22 63 24 63 4z m-102 -88 c-6 -17 -50 -17 -55 0 -3 8 6
12 27 12 21 0 30 -4 28 -12z"/>
<path d="M660 370 l0 -150 95 0 c94 0 95 0 95 25 0 23 -4 24 -62 27 l-63 3 -3
123 -3 122 -29 0 -30 0 0 -150z"/>
<path d="M870 409 c0 -154 23 -189 125 -189 35 0 52 6 77 29 l33 29 4 121 3
121 -33 0 -34 0 0 -111 c0 -98 -2 -112 -19 -125 -27 -19 -52 -18 -76 6 -17 17
-20 33 -20 125 l0 105 -30 0 -30 0 0 -111z"/>
<path d="M1182 495 c-23 -19 -32 -35 -32 -57 0 -57 19 -73 118 -98 39 -10 43
-14 40 -38 -3 -25 -7 -27 -48 -27 -37 0 -47 4 -55 23 -12 27 -65 32 -65 6 0
-98 210 -115 234 -18 15 60 -23 96 -127 119 -54 11 -42 65 14 65 19 0 34 -8
45 -25 20 -31 64 -35 64 -6 0 11 -10 32 -23 47 -19 22 -34 28 -78 32 -49 4
-59 1 -87 -23z"/>
<path d="M1410 370 l0 -150 30 0 30 0 0 150 0 150 -30 0 -30 0 0 -150z"/>
<path d="M1510 370 l0 -150 30 0 c30 0 30 1 30 54 l0 55 53 3 c48 3 52 5 55
31 3 27 2 27 -52 27 l-56 0 0 40 0 41 57 -3 56 -3 38 -60 c33 -52 38 -68 38
-122 l1 -63 30 0 c30 0 30 0 30 60 0 53 5 68 50 144 28 47 50 88 50 91 0 3
-14 5 -32 3 -27 -3 -36 -11 -62 -60 -17 -32 -33 -58 -36 -58 -3 0 -20 27 -38
60 l-33 60 -104 0 -105 0 0 -150z"/>
</g>
</svg>
